# xmcd
#
# Track frame offsets:
#	150
#	15597
#	25661
#	39522
#	52045
#	67194
#	79359
#	93999
#	106206
#	119095
#
# Disc length: 1767 seconds
#
# Revision: 0
# Processed by: cddbd v1.5.1PL0 Copyright (c) Steve Scherf et al.
# Submitted via: audiograbber 1.83.01
#
DISCID=8306e50a
DTITLE=Shackwacky - Standing above the Stars
DYEAR=1900
DGENRE=
TTITLE0=Bells
TTITLE1=I'll give a lot of loving to you
TTITLE2=Valentines Day
TTITLE3=Hold me with your eyes
TTITLE4=Sparrow
TTITLE5=I Suppose
TTITLE6=Standing Above The Stars
TTITLE7=Hey Hey I'm Memphis Bound
TTITLE8=Brand New Eyes
TTITLE9=Heart Made A Fool
EXTD=
EXTT0=
EXTT1=
EXTT2=
EXTT3=
EXTT4=
EXTT5=
EXTT6=
EXTT7=
EXTT8=
EXTT9=
PLAYORDER=
